<?xml version="1.0" encoding="UTF-8"?>
<svg id="Layer_1" xmlns="http://www.w3.org/2000/svg" version="1.1" viewBox="0 0 114.2 81.8">
  <!-- Generator: Adobe Illustrator 29.3.1, SVG Export Plug-In . SVG Version: 2.1.0 Build 151)  -->
  <defs>
    <style>
      .st0 {
        isolation: isolate;
      }

      .st1 {
        fill: #6d4a24;
      }

      .st2 {
        fill: #d89e59;
      }

      .st3 {
        fill: #babd8d;
      }

      .st4 {
        fill: #eb6424;
      }

      .st5 {
        fill: #fa9500;
      }
    </style>
  </defs>
  <g class="st0">
    <g class="st0">
      <path class="st5" d="M31.2,35.3c.2-1.8.2-6.6,0-8.4-1,0-1.9.6-2.6,1.4v-2.4h10v2.4c-.7-.8-1.6-1.4-2.6-1.4-.2,1.8-.2,6.6,0,8.4,0,.7.3.8.4.9h-5.8c0-.1.3-.2.4-.9Z"/>
      <path class="st5" d="M39.4,35.3c.2-1.8.2-6.6,0-8.4,0-.7-.3-.8-.4-.9h5.8c-.1.1-.3.2-.4.9,0,.6-.1,1.4-.1,2.3.5-.6,1.4-.9,2.7-.9s2,.4,2.5,1.2c.4.7.5,1.3.5,2.8s0,2.2.1,3c0,.7.3.8.4.9h-4.1c-.6,0-1-.6-1-1.3v-2.5c0-1.3,0-2.4-.5-2.4s-.5,1-.5,2.1c0,1.3,0,2.4.1,3.1,0,.7.3.8.4.9h-5.8c0-.1.3-.2.4-.9Z"/>
      <path class="st5" d="M50.6,32.3c0-2.2,1.7-4,5.2-4s5.3,1.8,5.3,4-.1.9-.2,1.3h-5.5c0,1.2,1.1,1.6,2.2,1.6s1.4-.3,1.9-.9c.3.2.7.4.9.6-.4.6-1.8,1.5-4.2,1.5-3.9,0-5.6-1.8-5.6-4ZM56.3,32.7v-.5c0-2.3,0-2.9-.5-2.9s-.5.6-.5,2.9v.5h1Z"/>
    </g>
  </g>
  <g class="st0">
    <g class="st0">
      <path class="st3" d="M64.9,35.5c.2-1.8.2-6.6,0-8.4,0-.7-.3-.8-.4-.9h5.7c3.4,0,6.3,1.5,6.3,5.2s-1.9,5.1-6.2,5.1h-5.8c0-.1.3-.2.4-.9ZM71.3,31.3c0-3.5-.7-4.1-1.6-4.2-.2,1.8-.2,6.6,0,8.4.8-.1,1.6-.6,1.6-4.2Z"/>
      <path class="st3" d="M77.1,33.5c0-1.6,1.2-3.2,3.8-3.2s1.6.2,2,.7c0-1.1-.8-1.5-1.9-1.5s-2.2.3-2.9.9v-1.5c1.1-.2,2.3-.3,3.5-.3,3.2,0,6,.9,6,4s0,2.2.1,3c0,.7.3.8.4.9h-5.8c.1-.1.3-.2.4-.9v-.4c0,.3-.9,1.5-2.5,1.5s-3.1-1.5-3.1-3ZM82.8,32.9c0-.8-.2-1.4-.5-1.4s-.5.5-.5,1.4.2,1.4.5,1.4.5-.5.5-1.4Z"/>
      <path class="st3" d="M88.7,35.5c0-.8.1-1.5.1-2.9s0-2.2-.1-3c0-.7-.3-.8-.4-.9h5.2v3.8c0,1.4,0,2.2.1,3,0,.7.3.8.4.9h-5.8c0-.1.3-.2.4-.9ZM88.4,26.1c0-1.2,1.2-2.1,2.8-2.1s2.8,1,2.8,2.1-1.2,2.1-2.8,2.1-2.8-1-2.8-2.1Z"/>
      <path class="st3" d="M94.7,27.1c0-.7-.3-.8-.4-.9h5.7c-.1.1-.4.2-.4.9-.2,1.8-.2,6.6,0,8.4,0,.7.3.8.4.9h-5.2c0-5.5,0-8.4,0-9.3Z"/>
      <path class="st3" d="M101.4,37.6l.3-.3c.5.4,1.1.6,1.9.6,1.7,0,2.4-.8,2.7-2-.5.5-1.4.7-2.5.7s-2-.4-2.5-1.2c-.5-.7-.5-1.3-.5-2.8s0-2.2-.1-3c0-.7-.3-.8-.4-.9h5.2v3.8c0,1.3,0,2.4.5,2.4s.5-.8.5-1.7v-.6c0-1.4,0-2.1-.1-2.9,0-.7-.3-.8-.4-.9h5.7c0,.1-.3.2-.4.9,0,.8-.1,1.5-.1,2.9v1.7c0,3.4-2.4,5.1-5.1,5.1s-4-.9-4.6-1.7Z"/>
    </g>
  </g>
  <g class="st0">
    <g class="st0">
      <path class="st4" d="M28.4,49c0-4.1,2.9-7.5,7.9-7.5s6.9,1.8,6.9,4.2-1.7,3-3.9,3-3.8-1-3.8-3,2.2-2.5,4.1-2.5c-.7-.2-1.4-.3-2.1-.3-2,0-3.6,1-3.6,3.4s3,4.2,5.4,4.2,2.8-.5,2.8-1.5c2.5,0,3.1,7.4-5.6,7.4s-8-3.3-8-7.5Z"/>
      <path class="st4" d="M44.8,54.9c.2-1.2.2-3.4.2-5.6,0-2.4,0-4.9-.2-6.2-.1-1-.5-1.1-.6-1.3h5.6c3.8,0,8.8-.5,8.8,3.5s-3,3.7-5.7,3.7c0,.3,0,.7,2.2.7s2.6-.3,3.3,1.5c.5,1.3,1,3.4,2.6,5h-7.6l-1.9-7.1c0,1.3,0,4.7.2,5.9.2.8.4,1.1.6,1.2h-8.1c.1-.2.5-.3.6-1.3ZM53,45.3c0-1.4-.7-2.3-1.5-2.3v3c0,.6,0,1.2,0,1.7,1.1,0,1.5-1.4,1.5-2.4Z"/>
      <path class="st4" d="M60.3,50.5v-3.5c0-1.6,0-3-.2-3.9-.1-1-.5-1.1-.6-1.3h8.4c-.2.2-.5.3-.6,1.3-.1.9-.2,2.3-.2,3.9v4.2c0,2.9,0,4.1,1.1,4.2,1.1,0,1.1-1.3,1.1-4.2v-4.2c0-1.6-.1-3-.2-3.9-.1-1-.4-1.1-.6-1.3h8.4c-.2.2-.5.3-.6,1.3-.1.9-.2,2.3-.2,3.9v3.5c0,4.7-3.9,6.2-7.8,6.2s-7.8-1.4-7.8-6.2Z"/>
      <path class="st4" d="M77.9,55c.3-2.6.3-9.3,0-11.9-.1-1-.5-1.1-.6-1.3h7.1l2.2,4.9,1.8-4.9h7.3c-.2.2-.5.3-.6,1.3-.3,2.6-.3,9.3,0,11.9.1,1,.4,1.1.6,1.2h-9.6c2.5-2.2,2-5.1,2-9.7l-3.8,8.5h-.4l-4.5-8.6c0,4.6,1.3,7.6,3.9,9.8h-6c.2-.2.5-.2.6-1.2Z"/>
      <path class="st4" d="M97.2,54.9c.3-2.6.3-9.3,0-11.8-.1-1-.5-1.1-.6-1.3h5.6c3.8,0,8.8-.3,8.8,2.4s-1.6,2.4-2.8,2.5c2.4.3,4.2,2,4.2,4.4,0,5.5-5.8,5.1-10.4,5.1h-5.5c.1-.2.5-.3.6-1.3ZM105.9,51.1c0-2.3-.1-3.4-2-3.4v2.9c0,1.3,0,3.3.2,4.5,1.6-.2,1.8-1.7,1.8-3.9ZM105.4,44.7c0-1.4-.7-1.6-1.5-1.6,0,1,0,2.4,0,3.3,1.1,0,1.5-.7,1.5-1.7Z"/>
    </g>
  </g>
  <path class="st2" d="M27,64.5c0-2.9,1.8-5.5,4.4-6.5-3.8-1.2-6.6-4.8-6.6-9s2.6-7.6,6.2-8.9c-3.3-1.5-5.5-4.8-5.5-8.6s2.6-7.6,6.3-8.9h0c-1.8-1.4-2.9-3.5-2.9-5.8s1.1-4.4,2.9-5.7v-.5C15.1,10.6,1.6,24.3,1.6,41s13.5,30.3,30.2,30.4h0c-2.8-1-4.8-3.7-4.8-6.8h0Z"/>
  <ellipse class="st1" cx="14.2" cy="23" rx="3.3" ry="3.4"/>
  <ellipse class="st1" cx="21.4" cy="32.5" rx="3.3" ry="3.4"/>
  <ellipse class="st1" cx="11.6" cy="52.6" rx="3.3" ry="3.4"/>
  <ellipse class="st1" cx="17.1" cy="43.6" rx="3.3" ry="3.4"/>
  <ellipse class="st1" cx="21.1" cy="63" rx="3.3" ry="3.4"/>
  <ellipse class="st1" cx="6.8" cy="36.8" rx="3.3" ry="3.4"/>
</svg>